<svg version="1.0" xmlns="http://www.w3.org/2000/svg"
     width="600.000000pt" height="600.000000pt" viewBox="0 0 600.000000 600.000000"
     preserveAspectRatio="xMidYMid meet">
    <g transform="translate(0.000000,600.000000) scale(0.100000,-0.100000)"
       fill="#000000" stroke="none">
        <path d="M2850 5253 c-625 -38 -1224 -352 -1620 -848 -381 -479 -550 -1099
-465 -1712 131 -941 852 -1704 1790 -1892 241 -48 567 -53 811 -12 372 63 723
220 1029 459 103 81 310 293 392 403 178 237 315 521 383 791 12 46 23 91 26
101 5 16 -20 17 -462 15 l-467 -3 -34 -79 c-125 -293 -370 -548 -658 -686 -44
-21 -123 -51 -175 -68 -284 -90 -608 -82 -886 23 -364 137 -662 444 -798 823
-93 259 -95 598 -4 866 131 390 444 708 831 845 278 98 598 102 869 11 264
-89 515 -271 671 -489 61 -83 147 -241 167 -303 l12 -38 468 0 467 0 -18 79
c-49 212 -184 521 -306 703 -458 682 -1214 1060 -2023 1011z"/>
    </g>
</svg>